HIERARCHY
ROOT Hips
{
 OFFSET 0.000000 0.000000 0.000000
 CHANNELS 6 Xposition Yposition Zposition Yrotation Xrotation Zrotation
 JOINT Chest
 {
  OFFSET 0.000000 9.585900 0.002600
  CHANNELS 3 Yrotation Xrotation Zrotation
  JOINT Chest2
  {
   OFFSET 0.000000 9.601200 -0.005300
   CHANNELS 3 Yrotation Xrotation Zrotation
   JOINT Chest3
   {
    OFFSET 0.000000 9.561800 0.000000
    CHANNELS 3 Yrotation Xrotation Zrotation
    JOINT Chest4
    {
     OFFSET 0.000000 9.552100 0.000000
     CHANNELS 3 Yrotation Xrotation Zrotation
     JOINT Neck
     {
      OFFSET 0.000000 14.453000 0.000000
      CHANNELS 3 Yrotation Xrotation Zrotation
      JOINT Head
      {
       OFFSET 0.000000 8.936500 -0.011300
       CHANNELS 3 Yrotation Xrotation Zrotation
       End Site
       {
        OFFSET 0.000000 17.073600 -0.006000
       }
      }
     }
     JOINT RightCollar
     {
      OFFSET -2.921100 9.558500 0.000000
      CHANNELS 3 Yrotation Xrotation Zrotation
      JOINT RightShoulder
      {
       OFFSET -13.519700 0.000000 0.000000
       CHANNELS 3 Yrotation Xrotation Zrotation
       JOINT RightElbow
       {
        OFFSET 0.000000 -29.696600 0.000000
        CHANNELS 3 Yrotation Xrotation Zrotation
        JOINT RightWrist
        {
         OFFSET 0.000000 -24.004700 0.000000
         CHANNELS 3 Yrotation Xrotation Zrotation
         End Site
         {
          OFFSET 0.000000 -17.728500 0.000000
         }
        }
       }
      }
     }
     JOINT LeftCollar
     {
      OFFSET 2.921100 9.558500 0.000000
      CHANNELS 3 Yrotation Xrotation Zrotation
      JOINT LeftShoulder
      {
       OFFSET 13.519700 0.000000 0.000000
       CHANNELS 3 Yrotation Xrotation Zrotation
       JOINT LeftElbow
       {
        OFFSET 0.000000 -29.696600 0.000000
        CHANNELS 3 Yrotation Xrotation Zrotation
        JOINT LeftWrist
        {
         OFFSET 0.000000 -24.004700 0.000000
         CHANNELS 3 Yrotation Xrotation Zrotation
         End Site
         {
          OFFSET 0.000000 -17.728500 0.000000
         }
        }
       }
      }
     }
    }
   }
  }
 }
 JOINT RightHip
 {
  OFFSET -7.771700 -0.012900 -0.001300
  CHANNELS 3 Yrotation Xrotation Zrotation
  JOINT RightKnee
  {
   OFFSET 0.000000 -40.869800 0.001200
   CHANNELS 3 Yrotation Xrotation Zrotation
   JOINT RightAnkle
   {
    OFFSET 0.000000 -39.717900 0.002100
    CHANNELS 3 Yrotation Xrotation Zrotation
    JOINT RightToe
    {
     OFFSET 0.000000 -4.965400 11.033500
     CHANNELS 3 Yrotation Xrotation Zrotation
     End Site
     {
      OFFSET 0.000000 -1.423100 5.872300
     }
    }
   }
  }
 }
 JOINT LeftHip
 {
  OFFSET 7.771700 -0.012900 -0.001300
  CHANNELS 3 Yrotation Xrotation Zrotation
  JOINT LeftKnee
  {
   OFFSET 0.000000 -40.869800 0.001200
   CHANNELS 3 Yrotation Xrotation Zrotation
   JOINT LeftAnkle
   {
    OFFSET 0.000000 -39.717900 0.002100
    CHANNELS 3 Yrotation Xrotation Zrotation
    JOINT LeftToe
    {
     OFFSET 0.000000 -4.965400 11.033500
     CHANNELS 3 Yrotation Xrotation Zrotation
     End Site
     {
      OFFSET 0.000000 -1.423100 5.872300
     }
    }
   }
  }
 }
}
MOTION
Frames: 8
Frame Time: 0.008333
-42.835516 51.506972 20.786868 178.340547 -24.629331 0.506261 -3.728495 12.979281 -0.199546 -0.297775 1.021253 0.065251 -0.545382 1.858924 0.092326 -3.422089 11.753020 0.339314 -1.734342 14.548786 -1.504926 -1.464025 -10.455481 -1.174626 1.157165 14.536169 8.596762 25.713494 1.775758 -30.309785 -170.272604 -50.117804 145.492461 -4.419873 3.421806 -26.303724 0.092139 12.504915 -13.653205 -33.311659 5.663115 31.478098 -137.304790 -48.339065 173.876499 14.415049 3.698862 21.022004 -8.502148 -58.555936 2.388843 -64.367854 81.830334 -73.472083 -4.044365 -6.351059 9.344670 0.306712 -0.671992 0.121517 8.356034 -56.126788 -7.230065 50.802662 85.163949 57.615258 -0.854488 -13.306018 -0.968900 0.112109 0.506969 0.053607
-42.834830 51.506391 20.787903 178.334677 -24.582967 0.510690 -3.738288 12.978532 -0.206694 -0.296472 1.022236 0.064696 -0.547782 1.859326 0.091896 -3.426119 11.755257 0.334516 -1.730497 14.536316 -1.506159 -1.449797 -10.486573 -1.170376 1.151979 14.523840 8.588214 25.683229 1.772599 -30.270840 -170.253258 -50.127114 145.433712 -4.396325 3.402246 -26.291275 0.092324 12.469927 -13.649895 -33.305036 5.658994 31.488470 -137.366475 -48.329924 173.886668 14.370459 3.700835 21.056586 -8.511087 -58.603550 2.402929 -64.365687 81.833709 -73.468989 -4.042958 -6.357625 9.345385 0.311142 -0.670864 0.123737 8.350745 -56.173620 -7.226037 50.798394 85.164012 57.600339 -0.858272 -13.305817 -0.973610 0.115663 0.507085 0.055668
-42.834772 51.505612 20.788912 178.332829 -24.537314 0.517418 -3.750125 12.977446 -0.216979 -0.313572 1.068719 0.058814 -0.529018 1.802894 0.098009 -3.428865 11.756886 0.329710 -1.731261 14.536582 -1.508254 -1.448983 -10.498834 -1.171730 1.142812 14.521075 8.575936 25.659251 1.773213 -30.233290 -170.319166 -50.138357 145.468311 -4.378981 3.403755 -26.299206 0.100962 12.438318 -13.643806 -33.337000 5.709837 31.481217 -137.422454 -48.302788 173.945807 14.342404 3.715093 21.030981 -8.516676 -58.651618 2.407687 -64.367026 81.839811 -73.468882 -4.041944 -6.365943 9.343981 0.311102 -0.668450 0.124021 8.350613 -56.219105 -7.230085 50.802145 85.160036 57.593401 -0.868246 -13.304326 -0.977117 0.119216 0.506690 0.058214
-42.835356 51.505577 20.787737 178.325994 -24.505943 0.530530 -3.755719 12.990188 -0.232484 -0.313961 1.068834 0.058249 -0.529749 1.803095 0.097072 -3.420535 11.724032 0.334974 -1.742431 14.560713 -1.515620 -1.454826 -10.482060 -1.175999 1.129551 14.533169 8.561763 25.644801 1.774783 -30.205341 -170.405704 -50.155631 145.517523 -4.402148 3.397819 -26.274820 0.071527 12.449081 -13.648628 -33.319943 5.698811 31.494132 -137.526882 -48.296657 174.007115 14.398829 3.732693 20.973278 -8.519164 -58.694695 2.403981 -64.411566 81.855364 -73.515653 -4.031231 -6.352656 9.339831 0.305191 -0.691142 0.123056 8.358229 -56.249337 -7.238746 50.799005 85.164698 57.582655 -0.877376 -13.303580 -0.982428 0.131366 0.502146 0.061756
-42.833899 51.504259 20.788777 178.317474 -24.459928 0.531432 -3.755855 12.989175 -0.235760 -0.311941 1.057994 0.060428 -0.535081 1.824904 0.092023 -3.422925 11.712744 0.331942 -1.736673 14.552430 -1.511164 -1.446690 -10.503099 -1.170954 1.144431 14.497295 8.567836 25.640625 1.775116 -30.196075 -170.451070 -50.170433 145.538341 -4.320017 3.401661 -26.311798 0.053825 12.430296 -13.644998 -33.301797 5.685706 31.508210 -137.651718 -48.294286 174.084402 14.433578 3.740719 20.966064 -8.535511 -58.743732 2.426296 -64.415226 81.858467 -73.515815 -4.025728 -6.351689 9.332113 0.304623 -0.695983 0.124602 8.353470 -56.295368 -7.233085 50.828444 85.162397 57.611331 -0.887021 -13.311738 -0.994699 0.143131 0.507988 0.066358
-42.832234 51.503362 20.788239 178.309672 -24.423436 0.530142 -3.757869 12.997127 -0.239901 -0.311954 1.057789 0.059993 -0.535096 1.824562 0.091232 -3.425239 11.713915 0.330147 -1.728854 14.534084 -1.505728 -1.441755 -10.514665 -1.166726 1.136502 14.485219 8.555269 25.625909 1.769748 -30.166927 -170.512066 -50.155684 145.603144 -4.236391 3.397248 -26.340865 0.004948 12.433365 -13.647561 -33.283161 5.658285 31.528398 -137.754269 -48.291258 174.162363 14.447557 3.740995 20.983783 -8.547526 -58.780003 2.446722 -64.411674 81.857677 -73.509194 -4.018658 -6.351621 9.326595 0.300807 -0.697793 0.125885 8.343055 -56.333599 -7.219060 50.869572 85.163017 57.647134 -0.893535 -13.315522 -0.999850 0.150750 0.508733 0.067780
-42.831427 51.502508 20.786933 178.296844 -24.390617 0.534585 -3.759507 13.007602 -0.249402 -0.314084 1.068243 0.057033 -0.532454 1.813155 0.093298 -3.438329 11.753326 0.307547 -1.694935 14.462574 -1.475446 -1.450716 -10.499376 -1.164274 1.115961 14.461814 8.529387 25.608767 1.740557 -30.119438 -170.695779 -50.172857 145.761117 -4.283381 3.397456 -26.324029 0.006359 12.375957 -13.624092 -33.289079 5.651897 31.526494 -137.850131 -48.284256 174.230259 14.461727 3.740178 21.012574 -8.559553 -58.816370 2.463233 -64.398620 81.864233 -73.497135 -4.007369 -6.341222 9.322268 0.293294 -0.709384 0.123438 8.332035 -56.366501 -7.205283 50.920424 85.164518 57.689929 -0.900801 -13.323853 -1.002892 0.158602 0.510799 0.066971
-42.828657 51.500369 20.787814 178.276510 -24.342396 0.527851 -3.744464 12.981948 -0.237280 -0.321351 1.088180 0.051707 -0.532013 1.812572 0.093032 -3.436429 11.751708 0.306221 -1.693323 14.453922 -1.471805 -1.448856 -10.509681 -1.159146 1.107797 14.449734 8.515979 25.626426 1.717947 -30.110049 -170.821637 -50.208039 145.830206 -4.291173 3.401586 -26.320186 -0.010404 12.359363 -13.620676 -33.332247 5.664936 31.519191 -137.881449 -48.276123 174.279858 14.430460 3.742250 21.041590 -8.586638 -58.865148 2.508415 -64.391280 81.854270 -73.478642 -4.000544 -6.330710 9.304117 0.303644 -0.715163 0.127826 8.308725 -56.420093 -7.171166 51.002331 85.167425 57.764667 -0.897037 -13.331912 -1.009700 0.159475 0.513775 0.065594
